<svg version="1.1" id="Layer_1" xmlns="http://www.w3.org/2000/svg" xmlns:xlink="http://www.w3.org/1999/xlink" x="0px" y="0px"
	 width="32" height="32" viewBox="0 0 501 501" xml:space="preserve">
<path fill="#8C52FF" opacity="1.000000" stroke="none" 
	d="
M321.000000,501.000000 
	C214.000031,501.000000 107.500053,501.000000 1.000057,501.000000 
	C1.000038,334.333405 1.000038,167.666794 1.000019,1.000147 
	C167.666565,1.000098 334.333130,1.000098 500.999756,1.000049 
	C500.999847,167.666519 500.999847,334.333038 500.999939,500.999786 
	C441.166656,501.000000 381.333344,501.000000 321.000000,501.000000 
M205.205811,464.454773 
	C205.205811,464.454773 205.541092,464.783966 205.541092,464.783966 
	C205.541092,464.783966 206.007797,464.729126 206.940674,464.809509 
	C236.535706,464.809509 266.130737,464.809509 296.276245,464.809509 
	C296.276245,363.461700 296.276245,262.862976 296.276245,161.596756 
	C330.738861,161.596756 364.653412,161.596756 398.749146,161.596756 
	C398.749146,136.192230 398.749146,111.458618 398.749146,86.557526 
	C299.709045,86.557526 201.018875,86.557526 102.537033,86.557526 
	C102.537033,111.606758 102.537033,136.261719 102.537033,161.542267 
	C136.627274,161.542267 170.544174,161.542267 205.103271,161.542267 
	C205.103271,164.439957 205.103271,166.721252 205.103271,169.002563 
	C205.103271,264.998901 205.102341,360.995209 205.108841,456.991547 
	C205.109009,459.322906 205.191925,461.654297 205.205811,464.454773 
z"/>
<path fill="#FFFFFF" opacity="1.000000" stroke="none" 
	d="
M205.236252,463.985657 
	C205.191925,461.654297 205.109009,459.322906 205.108841,456.991547 
	C205.102341,360.995209 205.103271,264.998901 205.103271,169.002563 
	C205.103271,166.721252 205.103271,164.439957 205.103271,161.542267 
	C170.544174,161.542267 136.627274,161.542267 102.537033,161.542267 
	C102.537033,136.261719 102.537033,111.606758 102.537033,86.557526 
	C201.018875,86.557526 299.709045,86.557526 398.749146,86.557526 
	C398.749146,111.458618 398.749146,136.192230 398.749146,161.596756 
	C364.653412,161.596756 330.738861,161.596756 296.276245,161.596756 
	C296.276245,262.862976 296.276245,363.461700 296.276245,464.809509 
	C266.130737,464.809509 236.535706,464.809509 206.374008,464.618225 
	C205.647034,464.240936 205.456680,464.093842 205.236252,463.985657 
z"/>
<path fill="#EBE1FF" opacity="1.000000" stroke="none" 
	d="
M205.221039,464.220215 
	C205.456680,464.093842 205.647034,464.240936 205.907562,464.578033 
	C206.007797,464.729126 205.541092,464.783966 205.541092,464.783966 
	C205.541092,464.783966 205.205811,464.454773 205.221039,464.220215 
z"/>
</svg>